PathFileType	4	(X/Y/Z)	Patient4_TMGait_0pt4_02_right_42.trc.trc
DataRate	CameraRate	NumFrames	NumMarkers	Units	OrigDataRate	OrigDataStartFrame	OrigNumFrames
75.268817204301	75.268817204301	6	33	mm	75.268817204301	89	       141
Frame#	Time	Sacral			L.Shoulder			Chest			R.Shoulder			Neck			R.ASIS			L.ASIS			R.Thigh.Superior			R.Thigh.Lateral			R.Thigh.Inferior			R.Patella			L.Thigh.Superior			L.Thigh.Lateral			L.Thigh.Inferior			L.Patella			L.Shank.Superior			L.Shank.Lateral			L.Shank.Inferior			R.Shank.Superior			R.Shank.Lateral			R.Shank.Inferior			R.Heel			R.Midfoot.Superior			R.Midfoot.Lateral			R.Toe			L.Heel			L.Midfoot.Lateral			L.Midfoot.Superior			L.Toe			L.Elbow			L.Wrist			R.Elbow			R.Wrist			
		X1	Y1	Z1	X2	Y2	Z2	X3	Y3	Z3	X4	Y4	Z4	X5	Y5	Z5	X6	Y6	Z6	X7	Y7	Z7	X8	Y8	Z8	X9	Y9	Z9	X10	Y10	Z10	X11	Y11	Z11	X12	Y12	Z12	X13	Y13	Z13	X14	Y14	Z14	X15	Y15	Z15	X16	Y16	Z16	X17	Y17	Z17	X18	Y18	Z18	X19	Y19	Z19	X20	Y20	Z20	X21	Y21	Z21	X22	Y22	Z22	X23	Y23	Z23	X24	Y24	Z24	X25	Y25	Z25	X26	Y26	Z26	X27	Y27	Z27	X28	Y28	Z28	X29	Y29	Z29	X30	Y30	Z30	X31	Y31	Z31	X32	Y32	Z32	X33	Y33	Z33	

89	56.499142857143	834.671650910150	1000.497167529358	504.446216843707	969.916481184254	1432.557313325742	303.675959590076	1096.460093036125	1370.507574778809	449.358096419381	1035.211596575489	1439.549568949041	634.000721513733	971.639850504005	1494.499440674206	461.232417504528	1074.491284129336	940.896545784818	593.724444586595	1032.933244501578	963.922436467495	323.092112118338	1104.193607649649	733.373846531641	574.467553375625	1025.987303000029	627.213914611818	648.457274677568	1098.839655421382	566.184145874166	570.383768888870	1091.899679438259	461.596482153371	593.197153450273	1103.294497003680	760.852883854347	352.650135539905	1025.440108438788	635.743737451455	295.525883302365	1121.122973508142	566.810185653049	353.139976007591	1128.877931291711	496.168251744085	361.677871729035	1103.020758748847	421.777936047054	354.578900818665	1015.101371844973	306.193023934841	304.188511848510	1069.583477892529	194.775130542441	371.723823532024	1021.990957274106	390.195850824931	603.416326567963	910.307462691473	336.001999511869	670.153230447426	905.218694390992	227.075089179184	618.613887324749	711.394229407615	128.251242199918	601.151127897836	889.311947476169	110.945616903080	632.112203824807	785.758545093602	83.123463331968	669.692299069537	979.487976740521	34.565590522968	651.241879416399	945.272386733714	38.301178795723	413.115327468032	1017.506523119899	36.121786425413	330.884429947543	1101.116647087593	96.908505075272	357.126881168766	1229.343708176918	44.666419207619	325.283758240335	928.655382284106	1081.077325301939	186.049162176136	1039.429078113837	842.572232000177	169.356125937712	1107.425463356004	1094.264317775347	746.021308531899	1318.673976085483	945.904359241004	721.887098720345	
90	56.512428571429	833.545410447273	1000.177485515442	500.321399260881	970.778761243405	1432.858563229677	300.703793333617	1095.858151653399	1370.638425130054	447.560149032178	1032.808731073534	1439.338194780832	631.732561543241	970.823116014947	1494.609157851420	458.330433874505	1072.735973367591	941.053524429523	591.103928766009	1033.039059771790	964.199617625763	320.327012765088	1108.398881871872	735.571936467199	571.808487177979	1033.507875065598	627.743760029314	646.208207004560	1108.522440107614	568.068543275834	568.508797636662	1103.025753731677	462.311839970518	592.009296820244	1101.958750016198	760.035275285135	349.549251740938	1023.071256147118	635.615231182296	292.690249931955	1117.923422282708	566.063890799213	350.652231386186	1125.043837525545	495.538871427939	359.461642830186	1099.093787044961	421.158515421939	352.614855763900	1010.949846727177	305.608071191659	302.539306629782	1064.846499450503	194.404667044492	370.869557216445	1031.355852822861	391.439878989044	602.317160918130	917.804379741240	341.196674417177	669.106506037105	909.752617701025	232.049125709589	618.647914127093	713.063173385793	141.636666553033	601.784101265218	889.888685247875	114.875267931827	632.492659138036	784.997280725864	92.462381895569	670.087614973128	975.007535375219	33.570652882839	651.217016707653	939.929633114796	38.261301337723	412.998396611776	1012.143169024581	36.002913586033	330.704562411243	1095.783133851433	96.759363874871	356.939085669779	1224.060185795187	44.395641291389	325.212580131638	936.016043259579	1081.987590872808	179.081396432464	1054.925473298955	847.360699700587	161.993912418476	1098.676608727763	1092.834978504581	744.452589349236	1301.569604332394	931.614382260100	725.294548972954	
91	56.525714285714	832.301359643677	999.774170626169	496.364261204286	971.644079531328	1433.006553741131	297.856949869965	1095.198945207576	1370.651453844245	445.948545731054	1030.279783581339	1439.067426684647	629.597419640917	969.995625156566	1494.650796479357	455.491858069741	1070.919833559368	941.142811822238	588.723193139374	1033.023763892067	964.420518747711	317.771348546332	1112.633982765485	738.053835318732	569.135176475857	1041.174483512788	628.536115091675	643.937099006757	1118.267993282883	570.373763706871	566.557857768258	1114.309833902515	463.527544289297	590.510082858564	1100.574159134777	759.255121586911	346.583931394478	1020.693503984254	635.491224544325	289.968266550476	1114.757389242350	565.339839067586	348.234817381951	1121.263197428915	494.920361515186	357.306878232995	1095.209606124040	420.550526370279	350.707903927978	1006.824245607726	305.054473333247	300.906590746107	1060.126371676521	194.042292027966	370.010390609549	1041.040581037936	393.067353561350	600.943673736851	925.904765624409	346.671612115130	667.964838832014	914.826602251292	237.440174156115	618.460344583273	715.656979211881	155.526114088237	602.357569469349	891.087996144793	119.478610001320	632.719333204867	785.085901490839	102.502592910018	670.433583048438	971.058844100668	32.629138001865	651.120423999556	934.606644133023	38.239443959190	412.866986112004	1006.802617119315	35.899342831483	330.516718797171	1090.469436995501	96.621823682080	356.741708486664	1218.795299583988	44.145851828306	325.133665853267	943.683948820630	1082.963766390135	172.171888959375	1070.662135718407	852.542604208086	154.814963454509	1089.290911934344	1091.450375619924	743.196371055703	1283.148716719044	918.331826277122	728.438275938730	
92	56.539000000000	830.953441998794	999.333659029219	492.593726182163	972.488593778709	1433.047675599010	295.161059822006	1094.473465051865	1370.595262063798	444.531656557321	1027.627715664939	1438.778915078134	627.605489762431	969.160070415268	1494.661480034047	452.747738358441	1069.082823896368	941.221145942986	586.588242866743	1032.901401451135	964.610158577055	315.439915737700	1116.752759554757	740.821252498244	566.466888604915	1048.766078732377	629.640577436121	641.649565428002	1127.820791229004	573.124290302038	564.536900792716	1125.524799812730	465.270806822675	588.730434957420	1099.157466849605	758.517115788481	343.760202488971	1018.292502013117	635.368520968497	287.410637737507	1111.624923005474	564.635449818873	345.918726143101	1117.540291418351	494.317341049638	355.259218212119	1091.366086265036	419.962537038537	348.899724177508	1002.712824718669	304.548456847508	299.319937683725	1055.414213420550	193.695263661800	369.167223034338	1050.836483687940	395.100232343076	599.329324200498	934.411954396623	352.328654447092	666.733976918116	920.358055120990	243.131395894601	618.051280345088	719.139314687162	169.446536711541	602.852356358317	892.971955051562	124.638558149108	632.772628987376	786.113261583768	112.889218015895	670.702261817360	967.902263253758	31.877655551081	650.910252787160	929.297543247959	38.236676362487	412.723696145626	1001.479552050893	35.811283812805	330.325001461548	1085.172664968514	96.497046671828	356.536860250711	1213.543009966028	43.915494077287	325.048229108104	951.594428960941	1084.050780604135	165.398145181362	1086.548109158678	858.156234171191	147.896943494438	1079.307006800603	1090.177191573470	742.233524133185	1263.558812183763	906.111121532706	731.270566371197	
93	56.552285714286	829.520037631884	998.913088751492	489.022743264068	973.302726895599	1433.042047028459	292.635675162520	1093.681683518831	1370.526156742869	443.312125575431	1024.862019859748	1438.520579850936	625.760464555344	968.323261178869	1494.683234530308	450.129713765940	1067.257084515411	941.353363039932	584.697333883815	1032.692695002081	964.798025565961	313.338586999389	1120.616523676485	743.862042438523	563.832948379973	1056.080651868704	631.089397094321	639.368654383047	1136.952767945850	576.321943232426	562.469477720146	1136.464834792519	467.550170505613	586.735673505210	1097.716430930685	757.819473515083	341.091543973469	1015.848607156519	635.249029243261	285.062461434237	1108.505892753209	563.948830903566	343.744662048675	1113.853138162218	493.734791596923	353.366535762307	1087.539744814843	419.405208458484	347.229384290313	998.588636029091	304.103151080952	297.809098627020	1050.693668997332	193.372240516497	368.361517915166	1060.558474363530	397.539007437354	597.540124301111	943.134086124178	358.045160467610	665.433152924393	926.289601371328	248.964229974363	617.446725480625	723.466437374380	182.853633198984	603.256179323829	895.633159863724	130.165040475688	632.650635750254	788.173086801313	123.184978286017	670.871817693318	965.852426028217	31.458456580049	650.549610533185	923.993899122491	38.251808198508	412.571444308559	996.166408728596	35.737603039269	330.133407649403	1079.886713846851	96.386136062337	356.327279323278	1208.294926464704	43.704679153361	324.958576567027	959.662415406975	1085.301675758022	158.838424355512	1102.478210798740	864.249184085509	141.316347655936	1068.787058924450	1089.090851762735	741.522026625533	1242.967440458369	894.993736336506	733.737254603536	
94	56.565571428571	828.022716247950	998.572951750698	485.657661151292	974.092068913931	1433.055655871287	290.293676600130	1092.833850388581	1370.500239404455	442.286588441648	1022.002068161277	1438.340653354222	624.059471051678	967.496528897601	1494.757846796795	447.666631019125	1065.461838833358	941.601950051393	583.042473487168	1032.422109632271	965.013554536140	311.465038859047	1124.106091996155	747.151110017452	561.271299565698	1062.950971315805	632.895758311843	637.135044776465	1145.478968315473	579.944851638156	560.395449060245	1146.956156133020	470.355616822853	584.617926361414	1096.249339385804	757.156638383213	338.602414695385	1013.339644630436	635.140117231558	282.960566050209	1105.363978950170	563.279487626485	341.759571892450	1110.158363662037	493.178218136527	351.676278715717	1083.690967497885	418.890712061674	345.731254005165	994.415717154894	303.728054557794	296.402280476969	1045.944765785010	193.082945830412	367.614516456865	1070.057577266483	400.360547041254	595.665326387861	951.901743671448	363.675960965461	664.093818560523	932.597201141923	254.744677936614	616.694304181544	728.600171436635	195.173010590111	603.562875066610	899.193554383758	135.808822556101	632.372053484451	791.363370274802	132.906113172942	670.930191662138	965.262235448466	31.488617623604	650.019373190715	918.686526467115	38.281673763844	412.413338107382	990.855153325703	35.676453294233	329.945587920835	1074.603885426154	96.290231151679	356.116646297647	1203.042131405641	43.515439578788	324.867732217493	967.786897506373	1086.768490243421	152.565590166482	1118.339002113049	870.872160360001	135.144171163941	1057.809807102858	1088.267086851255	741.003530711897	1221.558197968988	885.012670631379	735.779909485989	
